<svg xmlns="http://www.w3.org/2000/svg" width="340.9" height="380.9" viewBox="0 0 340.9 380.9"><defs><style>.cls-1{fill:#1d1d1b;}</style></defs><g id="Layer_2" data-name="Layer 2"><g id="Layer_1-2" data-name="Layer 1"><g id="Layer_2-2" data-name="Layer 2"><path class="cls-1" d="M88.6,380.9a83.2,83.2,0,0,1-58.8-24.3L24.3,351a83,83,0,0,1,0-117.4h0L161.4,96.4a55.7,55.7,0,0,1,79.2,78.4l-.4.4L128,287.4a15,15,0,1,1-21.9-20.5l.7-.7L219,154a25.8,25.8,0,0,0-.1-36.5h-.1a25.7,25.7,0,0,0-36.1.2L45.5,254.8a53.1,53.1,0,0,0,0,75l5.5,5.5a53.2,53.2,0,0,0,75.1,0L286,175.5A85.2,85.2,0,0,0,165.5,55L43.1,177.4a15,15,0,0,1-21.3-21.1h.1L144.2,33.8a115.2,115.2,0,1,1,163,162.9h0L147.3,356.6A82.8,82.8,0,0,1,88.6,380.9Z"/></g></g></g></svg>