<svg xmlns="http://www.w3.org/2000/svg" width="391.6" height="451.2" viewBox="0 0 391.6 451.2"><g id="Layer_2" data-name="Layer 2"><g id="Layer_1-2" data-name="Layer 1"><path d="M112.9,30.1c5.5,0,9.5.4,10.7,1.2,5.9,4,25.2,74.1,19.8,89.7s-43.1,22.6-47.3,52.9S179,331.8,222.2,334.6h1.3c21.4,0,49.5-33.7,60.2-33.7h.1c8.4.1,52.5,37,72.3,53.8a15.8,15.8,0,0,1,3.5,19.7c-6.4,11.4-17.1,28.6-27.7,38.5a31.8,31.8,0,0,1-21.5,8.3h-2.1C139.1,410.1-3.3,237.2,37,59.1,39.7,47.2,49.9,38.9,61.8,36a258.4,258.4,0,0,1,51.1-6m0-30C98.7,0,74.5,2.1,54.8,6.8c-24,5.8-42,23.3-47.1,45.7a308.5,308.5,0,0,0,1,141.1A338.5,338.5,0,0,0,66.8,316.5a350.6,350.6,0,0,0,104.8,93.3,328.9,328.9,0,0,0,64.6,28.3,304.1,304.1,0,0,0,70.2,13.1h4a61.5,61.5,0,0,0,41.9-16.4c10.6-9.8,21.9-25.2,33.4-45.7a45.6,45.6,0,0,0-10.1-57.2c-10.8-9.2-26.8-22.6-41.5-34-26.5-20.7-37.7-26.8-49.6-27h-.8c-14.7,0-25.9,8.7-38.9,18.8-5,3.9-10,7.8-14.8,10.9a42.2,42.2,0,0,1-6.6,3.6c-2.5-1-9.3-4.4-20.9-15.1s-23.5-24.3-35.6-40.5a352.6,352.6,0,0,1-29.7-45.9c-8.2-15.3-10.5-23.2-11.1-25.9,1.5-4.2,7.6-8.6,16.4-14.4,10.6-7.1,23.7-15.9,29.2-31.6,2.9-8.4,3.4-18.8,1.4-33.7a324.7,324.7,0,0,0-6.2-32.4c-2.7-10.7-5.7-21.3-8.6-29.7-4.7-13.6-9.1-22.6-17.8-28.5S123.8.1,112.9.1Z"/></g></g></svg>