<svg xmlns="http://www.w3.org/2000/svg" width="457" height="370.5" viewBox="0 0 457 370.5"><g id="Layer_2" data-name="Layer 2"><g id="Layer_1-2" data-name="Layer 1"><path d="M382.3,48H357.6L326,0H169L139.3,48H109V46A12,12,0,0,0,97,34H50A12,12,0,0,0,38,46V57.6A74.7,74.7,0,0,0,0,122.7V295.8a74.6,74.6,0,0,0,74.7,74.7H382.3A74.6,74.6,0,0,0,457,295.8V122.7A74.6,74.6,0,0,0,382.3,48ZM72.5,107A21.5,21.5,0,1,1,94,85.5,21.5,21.5,0,0,1,72.5,107Zm178,207A125.5,125.5,0,1,1,376,188.5,125.5,125.5,0,0,1,250.5,314Z"/><circle cx="250.5" cy="188.5" r="83.5"/></g></g></svg>