<svg xmlns="http://www.w3.org/2000/svg" width="471.5" height="412.8" viewBox="0 0 471.5 412.8"><defs><style>.cls-1{stroke:#fff;stroke-miterlimit:10;}</style></defs><g id="Layer_2" data-name="Layer 2"><g id="Layer_1-2" data-name="Layer 1"><path class="cls-1" d="M255.4,288.9c-5.4-2.2-14.7-7.1-25.2-14l-20.4,18-2.2,1.9c17.6,12.3,38.1,23.1,47.8,23.1,11.9,0,40.4-16.5,59.5-31.9,32.3-26,49.4-55.7,49.4-85.7a66.7,66.7,0,0,0-9.7-34.8l-14.4,12.6-5.2,4.7a36.8,36.8,0,0,1,3,14.7C338,243.2,273.9,281.2,255.4,288.9Z"/><path class="cls-1" d="M435.9,94l-4,3.5L410.8,116A39.7,39.7,0,0,1,441,154.4V322.9a39.5,39.5,0,0,1-39.5,39.5H130.8L118.7,373,97.6,391.6a74.2,74.2,0,0,0,10.5.8H401.5A69.7,69.7,0,0,0,471,322.9V154.4A69.7,69.7,0,0,0,435.9,94Z"/><path class="cls-1" d="M461,5.6a15,15,0,0,0-21.2-1.3h0L367.2,68.1a52.7,52.7,0,0,0-51.7-44H194.2a52.5,52.5,0,0,0-52.4,52.4v1.1a7.3,7.3,0,0,1-7.3,7.3H108.1a69.4,69.4,0,0,0-69.4,69.5V322.9a69,69,0,0,0,6.1,28.6L5.6,386a14.9,14.9,0,0,0-1.3,21.1h0a14.9,14.9,0,0,0,11.2,5.1,15.1,15.1,0,0,0,9.9-3.8L459.6,26.8A15.1,15.1,0,0,0,461,5.6ZM68.7,322.9V154.4a39.4,39.4,0,0,1,39.4-39.5h26.4a37.4,37.4,0,0,0,37.3-37.3V76.5a22.4,22.4,0,0,1,22.4-22.4H315.5a22.5,22.5,0,0,1,22.4,22.4v1.1a35.1,35.1,0,0,0,2.7,13.9l-48.7,42.7a63.7,63.7,0,0,0-36.5,17.1,64.1,64.1,0,0,0-43.9-17.5c-35.9,0-65,29.8-65,66.5,0,16.5,5.1,32.8,15.1,48.5L69.3,330A42.5,42.5,0,0,1,68.7,322.9Zm104-125.4c0-19.6,15.2-35.5,33.8-35.5a33.5,33.5,0,0,1,27.4,14.7,32.2,32.2,0,0,0,4.3,4.8L183.1,230C176.8,219.9,172.7,208.9,172.7,197.5Z"/></g></g></svg>