<svg xmlns="http://www.w3.org/2000/svg" width="440.8" height="424.5" viewBox="0 0 440.8 424.5"><defs><style>.cls-1{fill:#1d1d1b;}</style></defs><g id="Layer_2" data-name="Layer 2"><g id="Layer_1-2" data-name="Layer 1"><g id="Layer_2-2" data-name="Layer 2"><path class="cls-1" d="M360,0H80.7A80.9,80.9,0,0,0,0,80.7V363.6a73.5,73.5,0,0,0,6.8,31.3,50.4,50.4,0,0,0,44.9,29.6h1.2a50.3,50.3,0,0,0,45-27.5l40.3-78.3a21.2,21.2,0,0,1,16.4-7.8H360a80.9,80.9,0,0,0,80.8-80.7V80.7A80.9,80.9,0,0,0,360,0Zm50.8,230.2A50.9,50.9,0,0,1,360,280.9H154.6a51.9,51.9,0,0,0-41.2,20.8l-.7.9L71.2,383.3a20.7,20.7,0,0,1-27.9,8.9,21,21,0,0,1-9.3-9.8,45,45,0,0,1-4-18.8V80.7A50.8,50.8,0,0,1,80.7,30H360a50.9,50.9,0,0,1,50.8,50.7Z"/><path class="cls-1" d="M332.1,97.7H118.7a15,15,0,0,0,0,30H332.1a15,15,0,0,0,0-30Z"/><path class="cls-1" d="M332.1,187.7H118.7a15,15,0,1,0,0,30H332.1a15,15,0,0,0,0-30Z"/></g></g></g></svg>