<svg xmlns="http://www.w3.org/2000/svg" width="366.2" height="366.2" viewBox="0 0 366.2 366.2"><g id="Layer_2" data-name="Layer 2"><g id="Layer_2-2" data-name="Layer 2"><path d="M183.1,0C82.1,0,0,82.1,0,183.1S82.1,366.2,183.1,366.2s183.1-82.1,183.1-183.1S284.1,0,183.1,0Zm0,336.2C98.7,336.2,30,267.5,30,183.1S98.7,30,183.1,30,336.2,98.7,336.2,183.1,267.5,336.2,183.1,336.2Z"/><path d="M238.7,182.7c-10.4-6.4-28.8-12.9-54.9-19.6-10.9-2.7-18.5-4.9-23.1-6.4-14.5-4.8-21.7-10.6-21.7-17.3,0-3.8,1.5-7.5,4.4-11.1,6.7-7.2,16.5-10.8,29.6-10.8h26.7a23.1,23.1,0,0,1,3.7.3A33,33,0,0,1,227,131.4l35-26.5a64.8,64.8,0,0,0-15.2-10.3,105.8,105.8,0,0,0-47.1-11.1H197V61a15,15,0,0,0-30,0V83.7Q140.8,85,121.2,99.2q-22.5,16.5-22.5,40.2a41,41,0,0,0,11.5,29.1q14.4,15,54.4,25.5c23.3,6.2,35.9,9.7,38,10.6,14.5,5,21.7,11.2,21.7,18.8,0,3.8-1.5,7.4-4.7,10.8-7.1,7.4-17.8,11.1-31.9,11.1H161l-4.7-.2c-11-1.4-19.6-5.9-25.7-13.4L96.1,257.9a60.9,60.9,0,0,0,15.7,10.3A114.7,114.7,0,0,0,161,279.3h6v24.8a15,15,0,0,0,30,0V278.9q25.4-1.9,44.6-15.6c15.4-10.9,23.1-24.3,23.1-39.9S255.8,193,238.7,182.7Z"/></g></g></svg>