<svg xmlns="http://www.w3.org/2000/svg" width="463" height="465.5" viewBox="0 0 463 465.5"><g id="Layer_2" data-name="Layer 2"><g id="Layer_2-2" data-name="Layer 2"><path d="M212.2,132.9v-11c16.9-.6,31.8-2.9,44.6-6.8,15.4-4.8,23.1-10.6,23.1-17.5s-8.9-13.3-26-17.8c-10.4-2.7-28.8-5.6-54.9-8.5-10.9-1.2-18.5-2.2-23.1-2.8-14.5-2.1-21.7-4.7-21.7-7.6s1.5-3.3,4.4-4.8c6.7-3.2,16.5-4.8,29.6-4.8h26.7l3.7.2c9.9.5,17.8,2.5,23.6,5.9l35-11.6a93.4,93.4,0,0,0-15.1-4.5,228.3,228.3,0,0,0-47.2-4.8h-2.7V26.7c0-3.7-6.7-6.6-15-6.6s-15,2.9-15,6.6v9.9c-17.5.4-32.8,2.6-45.8,6.7-15,4.9-22.5,10.7-22.5,17.6,0,4.9,3.8,9.1,11.5,12.7q14.4,6.6,54.4,11.2c23.3,2.7,35.9,4.2,38,4.6,14.5,2.2,21.7,4.9,21.7,8.2,0,1.7-1.5,3.3-4.7,4.8-7.1,3.2-17.8,4.8-31.9,4.8H171.5c-11-.6-19.6-2.6-25.7-5.9l-34.5,11.5a88.5,88.5,0,0,0,15.7,4.5,248,248,0,0,0,49.2,4.9h6v10.8c0,3.6,6.7,6.5,15,6.5S212.2,136.5,212.2,132.9Z"/><path d="M381.4,109.3V80c0-44.1-82.1-80-183.1-80C99,0,18,34.7,15.3,77.8h0a16.2,16.2,0,0,0-.1,2.2,14.8,14.8,0,0,0,.1,2.1v42.4c0,24.2,24.8,45.9,63.8,60.6C32.6,199.2,1.7,222.4.1,248.7h0a16.2,16.2,0,0,0-.1,2.2A14.8,14.8,0,0,0,.1,253v42.4c0,24.8,26,47,66.8,61.7v28.4c0,44.1,82.1,80,183.1,80S433,429.6,433,385.5V341c0-21.1-18.9-40.4-49.7-54.7,48.1-14.4,79.7-38.6,79.7-66V175.9C463,148.2,430.5,123.7,381.4,109.3ZM45.2,80c0-36.9,68.7-66.9,153.1-66.9S351.4,43.1,351.4,80s-68.7,66.9-153.1,66.9S45.2,116.9,45.2,80ZM30,250.9c0-22.9,26.5-43.2,66.8-55.2v24.6c0,44.1,82.1,80,183.1,80h6.4c-27.2,10.9-63.5,17.5-103.2,17.5C98.7,317.8,30,287.8,30,250.9ZM403,341c0,36.9-68.7,66.9-153.1,66.9-61.8,0-115.1-16-139.3-39.1a393.8,393.8,0,0,0,72.5,6.6c99.3,0,180.4-34.7,183-77.9C389.1,309.2,403,324.4,403,341ZM279.9,242.8c-65.1,0-120.9-17.9-143-43a399.5,399.5,0,0,0,61.4,4.7c99.9,0,181.4-35.2,183.1-78.7C413,138.1,433,156,433,175.9,433,212.8,364.3,242.8,279.9,242.8Z"/></g></g></svg>