<svg xmlns="http://www.w3.org/2000/svg" width="430.1" height="294.1" viewBox="0 0 430.1 294.1"><defs><style>.cls-1{fill:#fff;}.cls-2{fill:#231f20;}</style></defs><g id="Layer_2" data-name="Layer 2"><g id="Layer_1-2" data-name="Layer 1"><path class="cls-1" d="M57,241.9v1l-.5.3Z"/><path class="cls-2" d="M176.9,0C79.2,0,0,57.9,0,129.2c0,33,16.9,63,44.7,85.9,8.6,7-31.4,69.5-31.4,69.5s71.8-38.9,86.3-38.9l1.3.2a231.2,231.2,0,0,0,76,12.5c97.7,0,177-57.8,177-129.2S274.6,0,176.9,0ZM75.8,221.2c1.1-16.6-8-26-12.1-29.3-11-9.1-19.5-19.2-25.3-30A68,68,0,0,1,30,129.2c0-24.7,14-48.5,39.5-67.1a160.8,160.8,0,0,1,47.4-23.2,206.1,206.1,0,0,1,120,0,161.3,161.3,0,0,1,47.5,23.2c25.4,18.6,39.5,42.4,39.5,67.1s-14.1,48.5-39.5,67.1a161.6,161.6,0,0,1-47.5,23.3,208.3,208.3,0,0,1-126.1-2,6.6,6.6,0,0,0-2-.6,35.8,35.8,0,0,0-9.2-1.3h0c-4.8,0-10.8.7-23.8,5.5Z"/><path class="cls-1" d="M310.6,262.3c2.4-1.2,4.7-2.5,7-3.8L322,256l3.2-2a167.5,167.5,0,0,0,14-9.8l2.5-2a162.3,162.3,0,0,0,12.4-11,173,173,0,0,0,15.3-17.8l2.2-3.2c14-20.6,21.4-43.8,21.4-67.3v-.6a68.9,68.9,0,0,1,6.2,7l1.7,2.1,2.9,4.3a74.7,74.7,0,0,1,5.4,11,50.7,50.7,0,0,1,1.5,32,10.9,10.9,0,0,1-.5,1.7,57.5,57.5,0,0,1-6,13.1l-1.6,2.5-.9,1.3c-.4.7-.9,1.3-1.3,1.9l-2.8,3.5-1.6,1.8-2.6,2.8h-.2l-.2.2a98.3,98.3,0,0,1-9.7,8.5l-8.5,6.4,1.8,10.4a45.9,45.9,0,0,0,1,5.1l-1.6-.6-1.3-.5-1.3-.4-3.4-1.1-.5-.2-1.4-.4-1.4-.3-1.3-.3-.8-.2h-.8l-.7-.2h-6.9l-2.9.2h-.6l-3.2.7h-.7l-.6.3a172.6,172.6,0,0,1-22.2,5.8C320.9,261.1,315.8,261.8,310.6,262.3Z"/><path class="cls-2" d="M367.6,104.5a97.4,97.4,0,0,1,7.9,38.4c0,20.7-6.6,40.2-18.3,57.4l-2,2.8a134.6,134.6,0,0,1-13.5,15.7,145.3,145.3,0,0,1-11,9.8l-2.3,1.8c-4,3.1-8.2,6.1-12.5,8.8L313,241l-4,2.3a190.3,190.3,0,0,1-45.3,18l-7.3,1.7q-3.7.9-7.5,1.5a197.8,197.8,0,0,1-23,2.8A174.5,174.5,0,0,0,280.6,280c4.6.3,9.3.5,14,.5a191.1,191.1,0,0,0,34.6-3.1,176,176,0,0,0,24.7-6.5l1.1-.2h6.6l.4.2h1.6l.4.2h1l2.8.9c0,.1,0,.1.1.1h0l.8.3h.3l.8.3h.4l.8.3.4.2.8.3h.3a2,2,0,0,1,.8.4h.4l.8.4h.4l.9.4.4.2.8.3.4.2.8.4.4.2.9.4h.3l.9.4.3.2,1,.4c0,.1.1.1.2.2l1,.4h.1l8.2,4.2h.2l1,.5h.1l1,.5.2.2.9.5h.3l.9.5h.2l.9.5h.2l.9.5.2.2.9.4c0,.1.1.1.2.1l.8.6h.2l.9.5h.1l.9.5h.1l6.6,3.9h.1l.6.3h.1l.5.3h.2l.4.3h.2l.4.2h.1l.4.2.2.2.3.2h.1l.3.2h.1l.3.2h.1l.2.2h.3l.2.2h.3l-2.8-4.8-3-5.3-2.1-4c-.8-1.6-1.7-3.3-2.5-5.1s-1.4-2.7-2-4.1c-3.8-8.1-7.2-16.8-8.4-24a103,103,0,0,0,11.7-10.2h.1L409,233c.6-.7,1.3-1.4,1.9-2.2s2.4-2.8,3.5-4.3l1.6-2.3,1.1-1.6,2.1-3.2a70.5,70.5,0,0,0,7.7-17,20.2,20.2,0,0,0,.7-2.3,68.9,68.9,0,0,0-2-42.8,84.1,84.1,0,0,0-7-14.1c-1.1-1.8-2.4-3.6-3.7-5.4l-1.9-2.6c-11-13.7-26.6-25.4-45.4-33.9Z"/><circle class="cls-1" cx="112.4" cy="126.9" r="15.5"/><path class="cls-2" d="M112.4,111.4a15.4,15.4,0,1,0,.2,0Z"/><circle class="cls-1" cx="174.9" cy="126.9" r="15.5"/><path class="cls-2" d="M174.9,111.4a15.5,15.5,0,1,0,15.5,15.5A15.4,15.4,0,0,0,174.9,111.4Z"/><circle class="cls-1" cx="237.4" cy="126.9" r="15.5"/><path class="cls-2" d="M237.4,111.4A15.5,15.5,0,1,0,252.8,127h0a15.4,15.4,0,0,0-15.3-15.5Z"/></g></g></svg>