<svg xmlns="http://www.w3.org/2000/svg" width="286.1" height="283.4" viewBox="0 0 286.1 283.4"><defs><style>.cls-1{fill:#231f20;}</style></defs><g id="Layer_2" data-name="Layer 2"><g id="Layer_2-2" data-name="Layer 2"><path class="cls-1" d="M93.2,193.6a22.5,22.5,0,0,0,16-6.6L266.4,29.9A17.5,17.5,0,1,0,241.6,5.1L93.1,153.6,29,90.3A17.5,17.5,0,0,0,4.5,115.2l72.7,71.9A22.8,22.8,0,0,0,93.2,193.6Z"/><path class="cls-1" d="M281,94.8a17.6,17.6,0,0,0-24.8,0L107.8,243.3,43.7,180.1A17.5,17.5,0,1,0,19.1,205l72.8,71.8a21.7,21.7,0,0,0,15.9,6.6,22.6,22.6,0,0,0,16-6.7L281,119.6A17.6,17.6,0,0,0,281,94.8Z"/></g></g></svg>