<svg xmlns="http://www.w3.org/2000/svg" width="353.4" height="353.4" viewBox="0 0 353.4 353.4"><defs><style>.cls-1{fill:#1d1d1b;}</style></defs><g id="Layer_2" data-name="Layer 2"><g id="Layer_2-2" data-name="Layer 2"><path class="cls-1" d="M342.1,43.7,309.7,11.3a38.6,38.6,0,0,0-54.6,0h0l-236,236A36.7,36.7,0,0,0,9,266.3L.7,309.9a36.4,36.4,0,0,0,28.8,42.8,33.5,33.5,0,0,0,7.1.7,32.3,32.3,0,0,0,6.9-.7l43.6-8.3a36.7,36.7,0,0,0,19-10.1l236-236a38.6,38.6,0,0,0,0-54.6ZM84.9,313.1a6.3,6.3,0,0,1-3.4,1.8l-43.6,8.4a6.6,6.6,0,0,1-7.8-5.1,6.2,6.2,0,0,1,0-2.7l8.4-43.6a6.3,6.3,0,0,1,1.8-3.4L232.1,76.8l44.5,44.5ZM320.9,77l-23,23.1L253.3,55.5l23.1-23a8.4,8.4,0,0,1,11.9-.1.1.1,0,0,0,.1.1L320.9,65a8.2,8.2,0,0,1,.2,11.7l-.2.3Z"/></g></g></svg>