<svg xmlns="http://www.w3.org/2000/svg" width="490.2" height="365" viewBox="0 0 490.2 365"><g id="Layer_2" data-name="Layer 2"><g id="Layer_1-2" data-name="Layer 1"><g id="Layer_2-2" data-name="Layer 2"><path class="cls-1" d="M384.9,0H105.3C47.4,0,0,47.4,0,105.3V259.7C0,317.6,47.4,365,105.3,365H384.9c57.9,0,105.3-47.4,105.3-105.3V105.3C490.2,47.4,442.8,0,384.9,0ZM426,277a15,15,0,0,1-21.3,0L335,207.3l-5.9,5.9a113.8,113.8,0,0,1-160.7,0l-13.2-13.1L78.3,277a15,15,0,0,1-21.2-21.2L134,178.9,72.3,117.1l-.4-.3A15,15,0,0,1,93.5,95.9L189.6,192a83.8,83.8,0,0,0,118.3,0l96-96.1a15,15,0,0,1,21.3,21.2l-69,69L426,255.8A15.1,15.1,0,0,1,426,277Z"/></g></g></g></svg>