<svg xmlns="http://www.w3.org/2000/svg" width="490.23" height="364.95" viewBox="0 0 490.23 364.95"><g id="Layer_2" data-name="Layer 2"><g id="Layer_1-2" data-name="Layer 1"><path class="cls-1" d="M384.94,0H105.3C47.38,0,0,47.38,0,105.3V259.66C0,317.57,47.38,365,105.3,365H384.94c57.91,0,105.29-47.38,105.29-105.29V105.3C490.23,47.38,442.85,0,384.94,0Zm75.29,259.66A75.59,75.59,0,0,1,384.94,335H105.3A75.59,75.59,0,0,1,30,259.66V105.3A75.59,75.59,0,0,1,105.3,30H384.94a75.59,75.59,0,0,1,75.29,75.3Z"/><path class="cls-1" d="M356.22,186.08l68.93-68.94a15,15,0,0,0-21.21-21.21L307.86,192a83.75,83.75,0,0,1-118.28,0L93.49,95.93a15,15,0,1,0-21.21,21.21L134,178.88,57.08,255.81A15,15,0,0,0,78.29,277l76.94-76.94,13.14,13.14a113.76,113.76,0,0,0,160.7,0l5.94-5.94L404.74,277A15,15,0,0,0,426,255.81Z"/></g></g></svg>