<svg xmlns="http://www.w3.org/2000/svg" width="458.8" height="190.8" viewBox="0 0 458.8 190.8"><g id="Layer_2" data-name="Layer 2"><g id="Layer_1-2" data-name="Layer 1"><path d="M418.4,190.8c-2.8,0-7.1-.8-15.5-3.4s-16.8-5.8-26-9.6c-17-7.1-38.6-17.3-45.1-26.1-5.2-7.2-5.2-16.9-5.1-27.1.1-13.3.1-27-10.4-36.8S251.3,70,197.9,73.5c-32.6,2.1-56.3,8.5-63.4,17.2a.7.7,0,0,0-.4.5c-5,7-3.9,23.9-3,36.3s1.4,21.9-2.6,27.5v.2c-2.4,3.2-6.9,9.2-85.5,26.6a24,24,0,0,1-26.3-12.7c-6.1-12.5-14-30.4-16.2-44.6A35.5,35.5,0,0,1,6.7,97.9L8.2,96C56.7,37.2,132.8,2.2,217.2.1,306.6-2.1,391.3,33.2,449.5,97c9.5,10.5,12,25.7,6.5,39.8S439.7,170,432.6,180h0c-5.2,7.3-7.9,9.3-10.6,10.2A11.3,11.3,0,0,1,418.4,190.8Z"/></g></g></svg>