<svg xmlns="http://www.w3.org/2000/svg" width="429.6" height="406.9" viewBox="0 0 429.6 406.9"><g id="Layer_2" data-name="Layer 2"><g id="Layer_1-2" data-name="Layer 1"><path d="M167.2,239.7A120.1,120.1,0,0,0,287.1,119.8C287.1,53.7,233.3,0,167.2,0S47.3,53.7,47.3,119.8A120.1,120.1,0,0,0,167.2,239.7Zm0-201.7a81.9,81.9,0,1,1-81.9,81.9h0A81.9,81.9,0,0,1,167.2,38Z"/><path d="M182,243.1H144.8C65,243.1,0,308.1,0,387.9a19.1,19.1,0,0,0,38.1,0C38.1,329,86,281.1,144.8,281.1H182c58.8,0,106.7,47.9,106.7,106.8a19,19,0,0,0,38,0C326.7,308.1,261.8,243.1,182,243.1Z"/><path d="M411.9,207.9H367.1V163.1a19.1,19.1,0,0,0-38.1,0v44.8H284.3a19.1,19.1,0,0,0-2.8,38.1H329v44.7a19.1,19.1,0,0,0,38.1,2.8,13.1,13.1,0,0,0,0-2.8V246h44.8a19.1,19.1,0,0,0,0-38.1Z"/></g></g></svg>