<svg xmlns="http://www.w3.org/2000/svg" width="427.7" height="367.8" viewBox="0 0 427.7 367.8"><g id="Layer_2" data-name="Layer 2"><g id="Layer_1-2" data-name="Layer 1"><path class="cls-1" d="M213.9,367.8c-31.2,0-89.2-37.4-118.5-61C32.9,256.5,0,198.4,0,138.7,0,62.2,61,0,136,0a133.9,133.9,0,0,1,77.8,24.9A133.9,133.9,0,0,1,291.6,0c75,0,136.1,62.2,136.1,138.7,0,59.7-33,117.8-95.4,168.1C303.1,330.4,245,367.8,213.9,367.8ZM136,41.7c-52,0-94.3,43.5-94.3,97,0,46.6,27.6,93.5,79.8,135.6,37.3,30.1,81.1,51.8,92.4,51.8s55-21.7,92.3-51.8c52.2-42.1,79.8-89,79.8-135.6,0-53.5-42.4-97-94.4-97A92.7,92.7,0,0,0,228.1,67L213.8,80.4,199.6,67A92.9,92.9,0,0,0,136,41.7Z"/></g></g></svg>