<svg xmlns="http://www.w3.org/2000/svg" width="490.6" height="344.6" viewBox="0 0 490.6 344.6"><g id="Layer_2" data-name="Layer 2"><g id="Layer_1-2" data-name="Layer 1"><path d="M15.5,188.6a15,15,0,0,0-11.8,5.6A15.1,15.1,0,0,0,15.5,219a15.2,15.2,0,0,0,0-30.4Z"/><circle cx="130.4" cy="203.6" r="15.1"/><circle cx="72.9" cy="203.6" r="15.1"/><path d="M130.3,314.2A15.2,15.2,0,0,0,113.8,328a15.4,15.4,0,0,0,13.8,16.5h2.5a15.2,15.2,0,0,0,.2-30.3Z"/><circle cx="15.1" cy="329.5" r="15.1"/><circle cx="72.7" cy="329.5" r="15.1"/><circle cx="15.3" cy="266.6" r="15.1"/><path d="M188,188.6a15.3,15.3,0,0,0-11.7,5.6,15,15,0,0,0,2.1,21.2,14.8,14.8,0,0,0,9.5,3.5,15.6,15.6,0,0,0,11.7-5.6,15.1,15.1,0,0,0-2.1-21.3,14.7,14.7,0,0,0-9.5-3.4Z"/><circle cx="303" cy="203.6" r="15.1"/><circle cx="245.5" cy="203.6" r="15.1"/><path d="M302.8,314.2a15.4,15.4,0,0,0-15.2,15.3,15,15,0,0,0,15,15,15.3,15.3,0,0,0,11.8-5.6,14.8,14.8,0,0,0,3.5-9.6A15.1,15.1,0,0,0,302.8,314.2Z"/><circle cx="187.7" cy="329.5" r="15.1"/><circle cx="245.2" cy="329.5" r="15.1"/><path d="M360.6,188.6a14.9,14.9,0,1,0,9.8,3.5,15.2,15.2,0,0,0-9.8-3.5Z"/><circle cx="475.5" cy="203.6" r="15.1"/><circle cx="418" cy="203.6" r="15.1" transform="translate(150.1 583.6) rotate(-80.8)"/><path d="M475.4,314.2a14.7,14.7,0,0,0-11.7,5.6,14.9,14.9,0,0,0-3.6,9.7,15.1,15.1,0,0,0,15.1,15,15.5,15.5,0,0,0,15.2-15.2,14.9,14.9,0,0,0-14.9-15.1Z"/><circle cx="475.4" cy="266.5" r="15.1"/><circle cx="360.3" cy="329.5" r="15.1"/><circle cx="417.8" cy="329.5" r="15.1" transform="translate(25.7 689.1) rotate(-80.8)"/><path d="M25.2,113.7a15.2,15.2,0,0,0-.2,30.4,15.5,15.5,0,0,0,15.3-15.3A15.2,15.2,0,0,0,25.2,113.7Z"/><circle cx="135.2" cy="128.8" r="15.1"/><circle cx="80.1" cy="128.8" r="15.1"/><path d="M190.3,113.7a15,15,0,0,0-11.8,5.6,15.1,15.1,0,0,0,11.6,24.8,15.5,15.5,0,0,0,15.2-15.3A15.1,15.1,0,0,0,190.3,113.7Z"/><circle cx="300.2" cy="128.8" r="15.1"/><circle cx="245.2" cy="128.8" r="15.1"/><path d="M366.9,138.4a14.8,14.8,0,0,0,3.5-9.6,15.2,15.2,0,1,0-15.2,15.3A14.8,14.8,0,0,0,366.9,138.4Z"/><circle cx="465.3" cy="128.8" r="15.1"/><circle cx="410.3" cy="128.8" r="15.1"/><path d="M200.1,79.8l45.1-45.2,45.2,45.2A15,15,0,0,0,301,84.2a15.4,15.4,0,0,0,10.6-4.4,15.1,15.1,0,0,0,0-21.2L258.5,5.5a18.9,18.9,0,0,0-26.6,0l-53.1,53a15.1,15.1,0,0,0,19.8,22.8l1.5-1.5Z"/></g></g></svg>