<svg xmlns="http://www.w3.org/2000/svg" width="448.5" height="442" viewBox="0 0 448.5 442"><defs><style>.cls-1{fill:#1d1d1b;}</style></defs><g id="Layer_2" data-name="Layer 2"><g id="Layer_1-2" data-name="Layer 1"><g id="Layer_2-2" data-name="Layer 2"><path class="cls-1" d="M188.8,353.1C212.4,366,222.3,366,225.5,366c22.2,0,61.2-27.4,74.3-38,38.9-31.4,59.4-67.7,59.4-105.1,0-48.2-38.5-87.5-85.8-87.5a84.5,84.5,0,0,0-47.9,14.9,84,84,0,0,0-47.8-14.9c-47.4,0-85.9,39.3-85.9,87.5,0,37.4,20.6,73.7,59.5,105.1A269.4,269.4,0,0,0,188.8,353.1Zm-67-130.2c0-31.7,25.1-57.5,55.9-57.5a54.8,54.8,0,0,1,37.6,15l10.2,9.6,10.3-9.6a54.8,54.8,0,0,1,37.6-15c30.8,0,55.8,25.8,55.8,57.5,0,28-16.7,56.3-48.2,81.7-24,19.3-49.5,31.3-55.5,31.4s-31.4-12.1-55.4-31.4C138.5,279.2,121.8,250.9,121.8,222.9Z"/><path class="cls-1" d="M412.4,115.5l-137-98.9a87.2,87.2,0,0,0-102.3,0L36.2,115.5A87.3,87.3,0,0,0,0,186.3a15,15,0,0,0,30,0,57.2,57.2,0,0,1,23.8-46.4l136.9-99a57.3,57.3,0,0,1,67.2,0l136.9,99a57.1,57.1,0,0,1,23.7,46.4V354.6A57.4,57.4,0,0,1,361.2,412H87.4A57.5,57.5,0,0,1,30,354.6V256.3a15,15,0,0,0-30,0v98.3A87.6,87.6,0,0,0,87.4,442H361.2a87.5,87.5,0,0,0,87.3-87.4V186.3A88.1,88.1,0,0,0,412.4,115.5Z"/></g></g></g></svg>