<svg xmlns="http://www.w3.org/2000/svg" width="418.5" height="478" viewBox="0 0 418.5 478"><g id="Layer_2" data-name="Layer 2"><g id="Layer_1-2" data-name="Layer 1"><path d="M408.7,13.3h0a16.4,16.4,0,0,0-24.4-11c-9.2,5.3-91.6,51.5-174.8,51.5S43.9,7.6,34.8,2.3a16.3,16.3,0,0,0-15-.8,16.4,16.4,0,0,0-9.5,11.7C7,28.9-8.6,111.9,6.5,206.8,15.3,262,32.8,311.2,58.8,353.1c32.1,51.9,77.2,92.6,133.9,121a37.9,37.9,0,0,0,33.7-.1c56.3-28.3,101-69,133.1-120.9,25.8-41.8,43.4-91,52.3-146.1C427.1,112.1,411.9,29,408.7,13.3ZM382.2,202.2c-8.3,51.2-24.5,96.7-48.3,135.2-29,47-69.8,84-121,109.8a7.4,7.4,0,0,1-6.8,0c-51.7-25.8-92.7-62.8-121.8-109.9-23.8-38.5-40-84-48.2-135.2-11.2-70.3-4.5-133.7.4-164.8,32.4,16.5,101.2,46.5,173,46.5S350,53.9,382.5,37.3C387.2,68.6,393.5,131.9,382.2,202.2Z"/><path d="M201,346.7c-17.5,0-30,10.4-30,25.3s12,25,29.5,25,30-10.9,30-25S218.5,346.7,201,346.7Z"/><path d="M208.5,116.7c-26.5,0-55.1,6.5-71.6,16.2l12,25.3c12.5-7.6,32.6-12.5,50.6-12.5,31.5.4,47.6,14.1,47.6,34.7,0,18.1-12.6,33.8-35.1,55.1-25,24.2-34,47.9-31,69.7l1,10.5h39l-.5-10.5c-1.5-20.5,6.5-38.3,28.6-59.2,24-23,43-42.7,43-70.1C292.1,145.3,266.1,116.7,208.5,116.7Z"/></g></g></svg>