<svg xmlns="http://www.w3.org/2000/svg" width="444.5" height="444.5" viewBox="0 0 444.5 444.5"><defs><style>.cls-1{fill:#231f20;}</style></defs><g id="Layer_2" data-name="Layer 2"><g id="Layer_1-2" data-name="Layer 1"><path class="cls-1" d="M366,0H78.4A78.5,78.5,0,0,0,0,78.5V366a78.5,78.5,0,0,0,78.4,78.5H366A78.7,78.7,0,0,0,444.5,366V78.5A78.7,78.7,0,0,0,366,0ZM78.4,30H366a48.5,48.5,0,0,1,48.5,48.5v69.8H30V78.5A48.6,48.6,0,0,1,78.4,30ZM30,366V178.3H157.4V414.5h-79A48.6,48.6,0,0,1,30,366Zm336,48.5H187.4V178.3H414.5V366A48.6,48.6,0,0,1,366,414.5Z"/></g></g></svg>