<svg xmlns="http://www.w3.org/2000/svg" width="336" height="378.3" viewBox="0 0 336 378.3"><g id="Layer_2" data-name="Layer 2"><g id="Layer_1-2" data-name="Layer 1"><path d="M267,49H122.4a69.1,69.1,0,0,0-69,69V309.4a69.2,69.2,0,0,0,69,68.9H267a69.2,69.2,0,0,0,69-68.9V118A69.1,69.1,0,0,0,267,49Zm33.1,260.4A33.1,33.1,0,0,1,267,342.5H122.4a33.1,33.1,0,0,1-33.1-33.1h0V118a33.1,33.1,0,0,1,33.1-33.1H267A33.1,33.1,0,0,1,300.1,118h0Z"/><path d="M209.5,35.9a18,18,0,0,0,0-35.9H73.1A73.3,73.3,0,0,0,0,73.1V276a18,18,0,0,0,35.9,0V73.1A37.4,37.4,0,0,1,73.1,35.9Z"/><path d="M258.7,124h-128a13.4,13.4,0,1,0,0,26.8h128a13.4,13.4,0,1,0,0-26.8Z"/><path d="M258.7,196h-128a13.5,13.5,0,0,0,0,26.9h128a13.5,13.5,0,0,0,0-26.9Z"/><path d="M258.7,273.2h-128a13.5,13.5,0,0,0,0,26.9h128a13.5,13.5,0,0,0,0-26.9Z"/></g></g></svg>