<svg id="Layer_1" data-name="Layer 1" xmlns="http://www.w3.org/2000/svg" width="340" height="428.2" viewBox="0 0 340 428.2"><g id="Layer_2" data-name="Layer 2"><g id="Layer_1-2" data-name="Layer 1-2"><g id="MIc"><path d="M162.9,311.1A104.3,104.3,0,0,0,267.2,206.9V103.8a104.3,104.3,0,0,0-208.6,0V206.9A104.4,104.4,0,0,0,162.9,311.1ZM88.6,103.8a74.3,74.3,0,0,1,148.6,0V206.9a74.3,74.3,0,0,1-148.6,1.7V103.8Z"/><path d="M307.5,208.1a15,15,0,0,0-30,0,114.6,114.6,0,0,1-229.1,0,15,15,0,0,0-30,0A144.7,144.7,0,0,0,147.9,351.9v60.8a15,15,0,0,0,30,0V351.9C250.6,344.4,307.5,282.8,307.5,208.1Z"/></g></g></g></svg>