<svg id="Layer_1" data-name="Layer 1" xmlns="http://www.w3.org/2000/svg" width="340" height="428.2" viewBox="0 0 340 428.2"><g id="Layer_2" data-name="Layer 2"><g id="Layer_1-2" data-name="Layer 1-2"><g id="Mute"><path d="M335.2,45a15,15,0,0,0-21.2.9h0L267.1,92.7A104.3,104.3,0,0,0,59.2,104.3V207.4a103.6,103.6,0,0,0,32.5,75.5l-1.4,1.5-3.4,3.7-2.7,3-1.6-1.6a113.8,113.8,0,0,1-33.7-80.9,15,15,0,0,0-30,0A144,144,0,0,0,63.8,313.2L4.5,377.4a15,15,0,0,0,21,21.5l1-1.1,64.6-70,5.2-5.6,15.9-17.3,5.9-6.4,2.2-2.4,6.4-6.9,15.7-17,8.5-9.2,78.4-85,6.8-7.4,23.2-25.1,6.8-7.4L336,66.2A15,15,0,0,0,335.2,45ZM229.3,133.7,118.7,253.6l-4,4.3-2.7,3a74.1,74.1,0,0,1-22.9-53.5V104.3a74.3,74.3,0,1,1,148.6,0v20.3l-1.7,1.7Z"/><path d="M267.7,207.4V164.1l-23.2,25.1-6.8,7.4v10.8a74.3,74.3,0,0,1-74.3,74.2h-4.1l-8.4,9.2-15.7,17A104.2,104.2,0,0,0,267.7,207.4Z"/><path d="M293,193.6a15,15,0,0,0-15,15h0A114.5,114.5,0,0,1,126.6,317.1l-5.9,6.4-15.9,17.2a143.6,143.6,0,0,0,43.7,11.7v60.8a15,15,0,1,0,30,0V352.4C251.1,344.9,308,283.3,308,208.6A15,15,0,0,0,293,193.6Z"/></g></g></g></svg>