<svg xmlns="http://www.w3.org/2000/svg" width="430.9" height="431" viewBox="0 0 430.9 431"><defs><style>.cls-1{fill:#1d1d1b;}</style></defs><g id="Layer_2" data-name="Layer 2"><g id="Layer_1-2" data-name="Layer 1"><g id="Layer_2-2" data-name="Layer 2"><path class="cls-1" d="M215.4,401C113.2,400.9,30,317.7,30,215.5v-.7a15,15,0,0,0-30,0v.7C.1,334.4,96.4,430.8,215.3,431h.1a15,15,0,0,0,0-30Z"/><path class="cls-1" d="M215.4,297.1a81.7,81.7,0,0,1-81.5-81.6v-.6a15,15,0,0,0-30,0v.6A111.8,111.8,0,0,0,215.4,327.1h0a15,15,0,0,0,0-30Z"/><path class="cls-1" d="M215.5,103.9h-.1a15,15,0,0,0,0,30h.1A81.8,81.8,0,0,1,297.1,215,14.9,14.9,0,0,0,312,229.9h.2a15,15,0,0,0,14.9-15.1h0A111.6,111.6,0,0,0,215.5,103.9Z"/><path class="cls-1" d="M367.6,62.9A214.2,214.2,0,0,0,215.5,0h-.1a15,15,0,0,0,0,30h.1A185.5,185.5,0,0,1,400.9,214.9a15.2,15.2,0,0,0,15,14.9h.1a14.8,14.8,0,0,0,14.9-14.7v-.3A213.8,213.8,0,0,0,367.6,62.9Z"/><circle class="cls-1" cx="215.5" cy="215.5" r="27.6"/></g></g></g></svg>