<svg xmlns="http://www.w3.org/2000/svg" width="222.5" height="397" viewBox="0 0 222.5 397"><g id="Layer_2" data-name="Layer 2"><g id="Layer_2-2" data-name="Layer 2"><path d="M161.4,0H61.1A61.2,61.2,0,0,0,0,61.1V335.9A61.2,61.2,0,0,0,61.1,397H161.4a61.2,61.2,0,0,0,61.1-61.1V61.1A61.2,61.2,0,0,0,161.4,0Zm31.1,335.9A31.2,31.2,0,0,1,161.4,367H61.1A31.1,31.1,0,0,1,30,335.9V61.1A31.1,31.1,0,0,1,61.1,30h16v.8h0a6.5,6.5,0,0,0,6.5,6.5h55.2a6.6,6.6,0,0,0,6.6-6.5h0a2.2,2.2,0,0,0-.1-.8h16.1a31.1,31.1,0,0,1,31.1,31.1Z"/><circle cx="111.2" cy="341.9" r="15.1"/></g></g></svg>