<svg xmlns="http://www.w3.org/2000/svg" width="456.7" height="357.3" viewBox="0 0 456.7 357.3"><defs><style>.cls-1{fill:#1d1d1b;}</style></defs><g id="Layer_2" data-name="Layer 2"><g id="Layer_1-2" data-name="Layer 1"><path class="cls-1" d="M456.7,178.9A121.8,121.8,0,0,0,335,57.2c-32.1,0-60.5,12.1-82.2,35.1-19.4,20.6-33,49.6-39.2,83.9-5.3,28.6-16.2,52.5-31.7,69.2a80.5,80.5,0,0,1-60.2,26.1,91.7,91.7,0,0,1-1.8-183.3L89,125a14.9,14.9,0,0,0,1.8,21h.1a14.8,14.8,0,0,0,9.6,3.5,14.6,14.6,0,0,0,11.5-5.4l54.6-65a14.9,14.9,0,0,0-1.8-21h-.1L99.7,3.5a15,15,0,0,0-19.3,23l37.8,31.7C52.7,60,0,113.9,0,179.8A121.8,121.8,0,0,0,121.7,301.5c32.1,0,60.5-12.4,82.2-35.7,19.3-20.8,32.9-50,39.2-84.2,5.2-28.6,16.1-52.3,31.6-68.7S311,87.2,335,87.2a91.7,91.7,0,0,1,.7,183.3l32-38.1a15,15,0,0,0-23-19.3l-54.5,65a15.1,15.1,0,0,0,1.8,21.2l65,54.5a15.1,15.1,0,0,0,24.7-11.5,15.2,15.2,0,0,0-5.4-11.5l-36.2-30.4C404.8,297.7,456.7,244.2,456.7,178.9Z"/></g></g></svg>