<svg xmlns="http://www.w3.org/2000/svg" width="462.9" height="362.4" viewBox="0 0 462.9 362.4"><defs><style>.cls-1{fill:#1d1d1b;}</style></defs><g id="Layer_2" data-name="Layer 2"><g id="Layer_1-2" data-name="Layer 1"><path class="cls-1" d="M247,159.4H189.4V101.9a15,15,0,0,0-30,0v57.5H101.9a15,15,0,0,0,0,30h57.5V247a15,15,0,0,0,30,0V189.4H247a15,15,0,0,0,0-30Z"/><path class="cls-1" d="M442.1,2A30.2,30.2,0,0,0,408,12.2L348.8,88.9c-2.7-49.4-44-88.9-94-88.9H94.1A94.3,94.3,0,0,0,0,94.1V254.8c0,51.7,42.3,94.1,94.1,94.1H254.8a94.3,94.3,0,0,0,92.4-76.4L408,350.4a30.6,30.6,0,0,0,24,12,32.1,32.1,0,0,0,10.2-1.7,30.5,30.5,0,0,0,20.7-29V30.9A30.2,30.2,0,0,0,442.1,2ZM318.9,254.8a64.5,64.5,0,0,1-64.1,64.1H94.1A64.5,64.5,0,0,1,30,254.8V94.1A64.2,64.2,0,0,1,94.1,30H254.8a64.2,64.2,0,0,1,64.1,64.1Zm114,76.9v.3c-.2.2-.7.4-.9.3s-.1,0-.3-.3L348.9,225.9V137.8L431.8,30.6l.2-.3a.8.8,0,0,1,.8.3.4.4,0,0,1,.1.3Z"/></g></g></svg>