<svg xmlns="http://www.w3.org/2000/svg" width="497.2" height="344.3" viewBox="0 0 497.2 344.3"><g id="Layer_2" data-name="Layer 2"><g id="Layer_1-2" data-name="Layer 1"><path d="M132.1,189.2H31a27,27,0,0,0-27,27V317.3a27,27,0,0,0,27,27H132.1a27,27,0,0,0,27-27h0V216.2A27,27,0,0,0,132.1,189.2Zm-3,125.1H34V219.2h95.1Z"/><path d="M299.3,189.2H198.2a27,27,0,0,0-27,27V317.3a27,27,0,0,0,27,27H299.3a27,27,0,0,0,27-27h0V216.2A27,27,0,0,0,299.3,189.2Zm-3,125.1H201.2V219.2h95.1Z"/><path d="M466.5,189.2H365.4a27,27,0,0,0-27,27V317.3a27,27,0,0,0,27,27H466.5a27,27,0,0,0,27-27h0V216.2A27,27,0,0,0,466.5,189.2Zm-3,125.1H368.4V219.2h95.1Z"/><path d="M15,144.1H482.2a15,15,0,0,0,0-30H15a15,15,0,0,0,0,30Z"/><path d="M235.2,78.6a18.7,18.7,0,0,0,26.4.3l.3-.3,53.1-53A15,15,0,0,0,293.9,4.3h-.1L248.6,49.5,203.4,4.4a15,15,0,0,0-21.2,21.2Z"/></g></g></svg>