<svg id="Layer_1" data-name="Layer 1" xmlns="http://www.w3.org/2000/svg" width="454.2" height="388.6" viewBox="0 0 454.2 388.6"><g id="Layer_2" data-name="Layer 2"><g id="Layer_1-2" data-name="Layer 1-2"><g id="Sp"><path d="M269.1,7.9a44.7,44.7,0,0,0-45.5.6L105.1,80a14.5,14.5,0,0,1-7.5,2.2L44.4,83A45.3,45.3,0,0,0,0,128.1V261.6a45,45,0,0,0,43.7,45.1l53.9,1.7a14.4,14.4,0,0,1,7.3,2.1l118.7,71.6a45,45,0,0,0,61.9-15.3,44.5,44.5,0,0,0,6.5-23.3V47.2A44.7,44.7,0,0,0,269.1,7.9ZM262,343.5a15.1,15.1,0,0,1-15.1,15.1,14.6,14.6,0,0,1-7.8-2.2L120.4,284.8h0a44.6,44.6,0,0,0-21.9-6.4l-53.9-1.7A15.1,15.1,0,0,1,30,261.6V128.1A15,15,0,0,1,44.9,113l53.1-.8a44.9,44.9,0,0,0,22.6-6.5L239.1,34.2a15,15,0,0,1,7.7-2.2,15.4,15.4,0,0,1,7.6,2A14.8,14.8,0,0,1,262,47.2Z"/><path d="M387.2,189.8a173.1,173.1,0,0,0-39.4-96.9,15,15,0,0,0-23.1,19.2,144,144,0,0,1-.5,184.3,15,15,0,1,0,23,19.3A172.6,172.6,0,0,0,387.2,189.8Z"/><path d="M453.4,185.1A230.6,230.6,0,0,0,393.6,47.4a15,15,0,0,0-22.2,20.2,202.4,202.4,0,0,1,5.3,266.6,15,15,0,1,0,22.8,19.4c.1,0,.1,0,.1-.1A230.5,230.5,0,0,0,453.4,185.1Z"/></g></g></g></svg>