<svg id="Layer_1" data-name="Layer 1" xmlns="http://www.w3.org/2000/svg" width="454.2" height="388.6" viewBox="0 0 454.2 388.6"><g id="Layer_2" data-name="Layer 2"><g id="Layer_1-2" data-name="Layer 1-2"><g id="Sp_Off" data-name="Sp Off"><path d="M262,162.6V343.1a15.1,15.1,0,0,1-15.1,15.1,15.5,15.5,0,0,1-7.8-2.1l-99-59.7-10.8,11.9L119.6,319l104,62.8a45.1,45.1,0,0,0,61.9-15.4,44.3,44.3,0,0,0,6.5-23.3V129.7l-24.3,26.7Z"/><path d="M359.1,3.9a15,15,0,0,0-21.2,1h0L292,55.2V46.8A45.1,45.1,0,0,0,223.6,8.2L105.1,79.6a14.5,14.5,0,0,1-7.5,2.2l-53.2.8A45.3,45.3,0,0,0,0,127.7V261.2a45,45,0,0,0,43.7,45.1l19,.6L60,309.8,11.5,363a15,15,0,1,0,21.7,20.7l.5-.5L98.6,312l11-12,9.7-10.7,10.9-11.9L252,143.6l5.7-6.2L282,110.7l5.7-6.2,72.4-79.4A15.1,15.1,0,0,0,359.1,3.9ZM252,99.1l-148.5,163L89.3,277.7l-44.7-1.4A14.9,14.9,0,0,1,30,261.2V127.7a15,15,0,0,1,14.9-15.1l53.1-.8a44,44,0,0,0,22.6-6.5L239.1,33.9a14.2,14.2,0,0,1,7.7-2.3,15.4,15.4,0,0,1,7.6,2A15,15,0,0,1,262,46.8V88.1l-4.3,4.8Z"/></g></g></g></svg>