<svg xmlns="http://www.w3.org/2000/svg" width="464.4" height="386.2" viewBox="0 0 464.4 386.2"><g id="Layer_2" data-name="Layer 2"><g id="Layer_1-2" data-name="Layer 1"><path d="M299.8.1a14.9,14.9,0,0,0-16.3,13.6,15.1,15.1,0,0,0,11.8,16c89.3,13.6,150.8,97.5,137.2,187-12.3,81.1-82.4,139.5-161.9,139.5a169,169,0,0,1-24.7-1.9c-89.3-13.6-150.8-97.5-137.2-186.9,0-.2,0-.3.1-.3L162,220.5a15,15,0,0,0,21.3-21.2L93.9,109.7,4.4,199.3a14.9,14.9,0,0,0,0,21.2,15.1,15.1,0,0,0,21.3,0h0l52.7-52.9c-13.2,104.1,59,200.5,163,216.4a202.8,202.8,0,0,0,29.2,2.2c94.1,0,177-69,191.6-165C478.3,115.3,405.5,16.1,299.8.1Z"/></g></g></svg>