<svg xmlns="http://www.w3.org/2000/svg" width="432.7" height="357.3" viewBox="0 0 432.7 357.3"><g id="Layer_2" data-name="Layer 2"><g id="Layer_1-2" data-name="Layer 1"><path d="M259.1,114.8a62.5,62.5,0,0,0-42.8,17,62.3,62.3,0,0,0-42.7-17c-34.9,0-63.3,29-63.3,64.7,0,29.3,16.6,58.1,48.1,83.5,18.6,15,46.3,31,58,31s39.3-16,57.9-31c31.5-25.4,48.1-54.2,48.1-83.5C322.4,143.8,294,114.8,259.1,114.8ZM216.4,259.5c-16.3-6.7-72.4-40-72.4-80,0-17.1,13.3-31,29.6-31a29,29,0,0,1,23.9,12.9,23,23,0,0,0,18.8,9.8h.1a23,23,0,0,0,18.8-9.8,29,29,0,0,1,23.9-12.9c16.3,0,29.5,13.9,29.5,31C288.6,219.6,232.6,252.8,216.4,259.5Z"/><path d="M359.7,55.4H341.6a13.2,13.2,0,0,1-13.4-12.9C328.2,19.1,308.9,0,285.1,0H150.4c-23.7,0-43.1,19.1-43.1,42.5A13.2,13.2,0,0,1,93.9,55.4h-21C32.7,55.4,0,87.6,0,127.2V285.5c0,39.6,32.7,71.8,72.9,71.8H359.7c40.2,0,73-32.2,73-71.8V127.2C432.7,87.6,399.9,55.4,359.7,55.4Zm39.2,230.1c0,21-17.6,38.1-39.2,38.1H72.9c-21.6,0-39.1-17.1-39.1-38.1V127.2c0-21,17.5-38.1,39.1-38.1h21c26,0,47.2-20.9,47.2-46.6,0-4.7,4.3-8.8,9.3-8.8H285.1c5.1,0,9.3,4.1,9.3,8.8,0,25.7,21.2,46.6,47.2,46.6h18.1c21.6,0,39.2,17.1,39.2,38.1Z"/></g></g></svg>