<svg xmlns="http://www.w3.org/2000/svg" width="418.8" height="458.2" viewBox="0 0 418.8 458.2"><g id="Layer_2" data-name="Layer 2"><g id="Layer_2-2" data-name="Layer 2"><path class="cls-1" d="M167.2,239.8C233.3,239.8,287,186,287,119.9S233.3,0,167.2,0a119.9,119.9,0,0,0,0,239.8Zm0-201.8a81.9,81.9,0,1,1-81.9,81.9A81.9,81.9,0,0,1,167.2,38Z"/><path class="cls-1" d="M196.8,251.7c2-2.4,4.1-4.7,6.3-7a148,148,0,0,0-21.2-1.5H144.8C65,243.2,0,308.1,0,387.9a19,19,0,1,0,38,0c0-58.8,47.9-106.7,106.8-106.7H178a130,130,0,0,1,15.6-25.5C194.6,254.3,195.7,253,196.8,251.7Z"/><path class="cls-1" d="M298.9,218.5c-66.1,0-119.9,53.7-119.9,119.8a119.9,119.9,0,0,0,239.8,0C418.8,272.2,365,218.5,298.9,218.5Zm0,201.7a81.9,81.9,0,1,1,81.9-81.9A81.9,81.9,0,0,1,298.9,420.2Z"/><path class="cls-1" d="M349.7,296.8a20,20,0,0,0-28.2,1.8L281,344.4l-8.9-10.9a20,20,0,1,0-30.9,25.4L265,388a20.3,20.3,0,0,0,15.1,7.3h.4a20.1,20.1,0,0,0,15-6.8l56-63.4A20.1,20.1,0,0,0,349.7,296.8Z"/></g></g></svg>