<svg xmlns="http://www.w3.org/2000/svg" width="349.3" height="453.9" viewBox="0 0 349.3 453.9"><defs><style>.cls-1{fill:#1d1d1b;}</style></defs><g id="Layer_2" data-name="Layer 2"><g id="Layer_1-2" data-name="Layer 1"><g id="Layer_2-2" data-name="Layer 2"><path class="cls-1" d="M174.7,266.8c72.5,0,131.5-59.8,131.5-133.4S247.2,0,174.7,0,43.2,59.8,43.2,133.4,102.2,266.8,174.7,266.8Zm0-236.8c55.9,0,101.5,46.4,101.5,103.4S230.6,236.8,174.7,236.8,73.2,190.4,73.2,133.4,118.7,30,174.7,30Z"/><path class="cls-1" d="M196.1,283.4H153.2C68.8,283.4,0,353.2,0,438.9a15,15,0,0,0,30,0,125.8,125.8,0,0,1,36.3-88.7c23.4-23.7,54.2-36.8,86.9-36.8h42.9c32.7,0,63.6,13.1,86.9,36.8a125.8,125.8,0,0,1,36.3,88.7,15,15,0,0,0,30,0C349.3,353.2,280.6,283.4,196.1,283.4Z"/></g></g></g></svg>