<svg xmlns="http://www.w3.org/2000/svg" width="509.1" height="344.3" viewBox="0 0 509.1 344.3"><g id="Layer_2" data-name="Layer 2"><g id="Layer_1-2" data-name="Layer 1"><g id="Layer_2-2" data-name="Layer 2"><path class="cls-1" d="M255.3,205.6c55.9,0,101.3-46.1,101.3-102.8S311.2,0,255.3,0,153.9,46.1,153.9,102.8,199.4,205.6,255.3,205.6Zm0-175.6c39.3,0,71.3,32.6,71.3,72.8s-32,72.8-71.3,72.8-71.4-32.7-71.4-72.8S215.9,30,255.3,30Z"/><path class="cls-1" d="M271.2,210.2H239.4c-64.8,0-117.5,53.4-117.5,119.1a15,15,0,0,0,30,0c0-49.1,39.2-89.1,87.5-89.1h31.8c48.2,0,87.5,40,87.5,89.1a15,15,0,0,0,30,0C388.7,263.6,336,210.2,271.2,210.2Z"/><path class="cls-1" d="M99.5,197.1a75.2,75.2,0,0,0,58.9-28.7,114.2,114.2,0,0,1-11.9-22.7,53.1,53.1,0,0,1-47,29c-29.3,0-53.2-24.3-53.2-54.3S70.2,66.2,99.5,66.2a52.9,52.9,0,0,1,40.2,18.7,105.7,105.7,0,0,1,6.4-24.7A74.8,74.8,0,0,0,99.5,43.8c-41.7,0-75.6,34.4-75.6,76.6S57.8,197.1,99.5,197.1Z"/><path class="cls-1" d="M163.7,218.2a86.5,86.5,0,0,0-52.4-17.7H87.6C39.4,200.5.1,240.3.1,289.3a11.2,11.2,0,1,0,22.3,2.1v-2.1c0-36.7,29.3-66.5,65.2-66.5h23.7A63.9,63.9,0,0,1,146,233,132.2,132.2,0,0,1,163.7,218.2Z"/><path class="cls-1" d="M409.6,174.7a53,53,0,0,1-46.2-27.5,124.7,124.7,0,0,1-11.9,22.2,75.1,75.1,0,0,0,58.1,27.7c41.7,0,75.6-34.4,75.6-76.7s-33.9-76.6-75.6-76.6a74.4,74.4,0,0,0-45.4,15.5,132.9,132.9,0,0,1,6.5,24.2,52.3,52.3,0,0,1,38.9-17.3c29.4,0,53.2,24.3,53.2,54.2S439,174.7,409.6,174.7Z"/><path class="cls-1" d="M421.5,200.5H397.8a85.9,85.9,0,0,0-51.7,17.2A148,148,0,0,1,364,232.5a63.9,63.9,0,0,1,33.8-9.7h23.7c35.9,0,65.2,29.8,65.2,66.5a11.2,11.2,0,0,0,22.4,0C509.1,240.3,469.8,200.5,421.5,200.5Z"/></g></g></g></svg>