<svg xmlns="http://www.w3.org/2000/svg" width="335.8" height="335.8" viewBox="0 0 335.8 335.8"><defs><style>.cls-1{fill:#1d1d1b;}</style></defs><g id="Layer_2" data-name="Layer 2"><g id="Layer_2-2" data-name="Layer 2"><path class="cls-1" d="M259.9,0H75.9A75.9,75.9,0,0,0,0,75.9v184a76.1,76.1,0,0,0,75.9,75.9h184a76.1,76.1,0,0,0,75.9-75.9V75.9A75.9,75.9,0,0,0,259.9,0Zm45.9,259.9a46.1,46.1,0,0,1-45.9,45.9H75.9A46.1,46.1,0,0,1,30,259.9V75.9A46,46,0,0,1,75.9,30h184a46,46,0,0,1,45.9,45.9Z"/><path class="cls-1" d="M233.3,151.5H184.5l1.3-88.3A14.9,14.9,0,0,0,171.2,48h-.1a15,15,0,0,0-15.3,14.7h0L154,181.5h79.3a15,15,0,0,0,0-30Z"/></g></g></svg>