<svg xmlns="http://www.w3.org/2000/svg" width="718.5" height="208.8" viewBox="0 0 718.5 208.8"><g id="Layer_2" data-name="Layer 2"><g id="Layer_1-2" data-name="Layer 1"><path class="cls-1" d="M640.1,182.9a78.4,78.4,0,0,1-52.8-20.4l-.8.3a104.3,104.3,0,0,0-147.8,10.1l-.4-.3a104.3,104.3,0,0,1-158,0l-.6.2A104.4,104.4,0,0,0,132.8,162l-.4-.6a78.5,78.5,0,1,1-.7-114.6l.8-.4A104,104,0,0,0,200.9,72,104.1,104.1,0,0,0,279,36.8l.3.5a104.4,104.4,0,0,1,158.2-2l.5-.2A104.5,104.5,0,0,0,517.7,72a104,104,0,0,0,70.1-27.1l.5.6a78.4,78.4,0,1,1,51.8,137.4Z"/></g></g></svg>