<svg 
 xmlns="http://www.w3.org/2000/svg"
 xmlns:xlink="http://www.w3.org/1999/xlink"
 width="811px" height="301px">
<defs>
<filter filterUnits="userSpaceOnUse" id="Filter_0" x="0px" y="0px" width="811px" height="301px"  >
    <feOffset in="SourceAlpha" dx="0" dy="13" />
    <feGaussianBlur result="blurOut" stdDeviation="6.782" />
    <feFlood flood-color="rgb(0, 2, 17)" result="floodOut" />
    <feComposite operator="atop" in="floodOut" in2="blurOut" />
    <feComponentTransfer><feFuncA type="linear" slope="0.7"/></feComponentTransfer>
    <feMerge>
    <feMergeNode/>
    <feMergeNode in="SourceGraphic"/>
  </feMerge>
</filter>

</defs>
<g filter="url(#Filter_0)">
<path fill-rule="evenodd"  fill="rgb(108, 93, 210)"
 d="M685.852,215.144 C665.521,215.144 646.996,207.412 633.056,194.729 L632.333,195.045 C613.950,178.885 589.857,169.066 563.457,169.066 C531.903,169.066 503.640,183.085 484.497,205.213 L484.096,204.833 C464.953,227.008 436.658,241.063 405.064,241.063 C373.483,241.063 345.200,227.020 326.057,204.861 L325.491,205.051 C306.351,183.017 278.149,169.066 246.671,169.066 C220.677,169.066 196.922,178.588 178.649,194.306 L178.180,193.672 C164.120,206.972 145.158,215.144 124.276,215.144 C80.935,215.144 45.800,180.009 45.800,136.667 C45.800,93.326 80.935,58.191 124.276,58.191 C144.827,58.191 163.525,66.100 177.515,79.028 L178.264,78.696 C196.588,94.612 220.494,104.269 246.671,104.269 C277.754,104.269 305.648,90.669 324.772,69.113 L325.065,69.618 C344.216,46.794 372.939,32.272 405.064,32.272 C436.199,32.272 464.133,45.918 483.260,67.537 L483.815,67.334 C502.964,89.918 531.528,104.269 563.457,104.269 C590.458,104.269 615.064,94.017 633.597,77.195 L634.059,77.735 C647.880,65.578 665.998,58.191 685.852,58.191 C729.193,58.191 764.329,93.326 764.329,136.667 C764.329,180.009 729.193,215.144 685.852,215.144 Z"/>
</g>
</svg>