<svg id="Layer_1" data-name="Layer 1" xmlns="http://www.w3.org/2000/svg" width="685.5" height="500.3" viewBox="0 0 685.5 500.3"><defs><style>.cls-1{fill:#45485f;}</style></defs><path class="cls-1" d="M539.6,317.1c-3,4.2-5.4,6.9-6.7,7.3-6.2,2.2-71.7-22.9-81-35.6s5.1-44.8-16.5-65-168.3-27-193.5,3.6l-.7.9c-11.4,16,.1,55.9-5.6,63.8h0c-4.6,6.1-57.1,18.3-80.9,23.6a15.8,15.8,0,0,1-17.3-8.5c-5.5-11.2-13.4-28.8-15.5-42.2a27.5,27.5,0,0,1,4.9-20.7,9.1,9.1,0,0,1,1.1-1.6c98.7-119.7,310.5-128.7,429.2,1.4,7.9,8.7,9,21,4.9,31.5-5.5,14.2-15.5,31.7-22.4,41.4"/></svg>