<svg id="Layer_1" data-name="Layer 1" xmlns="http://www.w3.org/2000/svg" width="685.5" height="500.3" viewBox="0 0 685.5 500.3"><defs><style>.cls-1{fill:#45485f;}</style></defs><path class="cls-1" d="M267,54.3c5.5,0,9.5.4,10.7,1.2,5.9,4,25.2,74.1,19.8,89.7s-43.1,22.6-47.3,52.9S333.1,356,376.3,358.8h1.3c21.4,0,49.5-33.7,60.2-33.7h.1c8.4.1,52.5,37,72.3,53.8a15.8,15.8,0,0,1,3.5,19.7c-6.4,11.4-17.1,28.6-27.7,38.5a31.8,31.8,0,0,1-21.5,8.3h-2.1c-169.2-11.1-311.6-184-271.3-362.1,2.7-11.9,12.9-20.2,24.8-23.1a257.7,257.7,0,0,1,51.1-6m0-30c-14.2,0-38.4,2.1-58.1,6.8-24,5.8-42,23.3-47.1,45.7a308.6,308.6,0,0,0,1,141.1,340.4,340.4,0,0,0,58.1,122.9A350.7,350.7,0,0,0,325.7,434a326.7,326.7,0,0,0,64.6,28.3,303.8,303.8,0,0,0,70.2,13.1h4a61.3,61.3,0,0,0,41.9-16.4c10.6-9.8,21.9-25.2,33.4-45.7a45.6,45.6,0,0,0-10.1-57.2c-10.8-9.2-26.8-22.6-41.5-34-26.5-20.7-37.7-26.8-49.6-27h-.8c-14.7,0-25.9,8.7-38.9,18.8-5,3.9-10,7.8-14.8,10.9a39.6,39.6,0,0,1-6.6,3.6c-2.5-1-9.3-4.4-20.9-15.1S333.1,289,321,272.8a361.5,361.5,0,0,1-29.7-45.9c-8.2-15.3-10.5-23.2-11.1-25.9,1.5-4.2,7.6-8.6,16.4-14.4,10.6-7.1,23.7-15.9,29.2-31.6,2.9-8.4,3.4-18.8,1.4-33.7A314.1,314.1,0,0,0,321,88.9c-2.7-10.7-5.7-21.3-8.6-29.7-4.7-13.6-9.1-22.6-17.8-28.5s-16.7-6.4-27.6-6.4Z"/></svg>