<svg id="Layer_1" data-name="Layer 1" xmlns="http://www.w3.org/2000/svg" width="685.5" height="500.3" viewBox="0 0 685.5 500.3"><defs><style>.cls-1{stroke:#fff;stroke-miterlimit:10;}</style></defs><path class="cls-1" d="M343.3,318.9c-5.4-2.2-14.7-7.1-25.2-14l-20.4,18-2.2,1.9c17.6,12.3,38.1,23.1,47.8,23.1,11.9,0,40.4-16.5,59.5-31.9,32.3-26,49.4-55.7,49.4-85.7a66.2,66.2,0,0,0-9.7-34.8l-14.4,12.6-5.2,4.7a37.1,37.1,0,0,1,3,14.7C425.9,273.2,361.8,311.2,343.3,318.9Z"/><path class="cls-1" d="M523.8,124l-4,3.5L498.7,146a39.6,39.6,0,0,1,30.2,38.4V352.9a39.5,39.5,0,0,1-39.5,39.5H218.7L206.6,403l-21.1,18.6a73.1,73.1,0,0,0,10.5.8H489.4a69.6,69.6,0,0,0,69.5-69.5V184.4A69.7,69.7,0,0,0,523.8,124Z"/><path class="cls-1" d="M548.9,35.6a15,15,0,0,0-21.2-1.3L455.1,98.1a52.6,52.6,0,0,0-51.7-44H282.1a52.5,52.5,0,0,0-52.4,52.4v1.1a7.3,7.3,0,0,1-7.3,7.3H196a69.5,69.5,0,0,0-69.4,69.5V352.9a69.8,69.8,0,0,0,6.1,28.6L93.5,416a15,15,0,0,0-1.3,21.2,14.7,14.7,0,0,0,11.2,5.1,14.5,14.5,0,0,0,9.9-3.8L547.5,56.8A15.1,15.1,0,0,0,548.9,35.6ZM156.6,352.9V184.4A39.5,39.5,0,0,1,196,144.9h26.4a37.4,37.4,0,0,0,37.3-37.3v-1.1a22.4,22.4,0,0,1,22.4-22.4H403.4a22.5,22.5,0,0,1,22.4,22.4v1.1a35.9,35.9,0,0,0,2.7,13.9l-48.7,42.7a64.3,64.3,0,0,0-36.5,17.1,64.4,64.4,0,0,0-43.9-17.5c-35.9,0-65,29.8-65,66.5,0,16.5,5.1,32.8,15.1,48.5L157.2,360A41.7,41.7,0,0,1,156.6,352.9Zm104-125.4c0-19.6,15.2-35.5,33.8-35.5a33.4,33.4,0,0,1,27.4,14.7,28.3,28.3,0,0,0,4.3,4.8L271,260C264.7,249.9,260.6,238.9,260.6,227.5Z"/></svg>