<svg id="Layer_1" data-name="Layer 1" xmlns="http://www.w3.org/2000/svg" width="685.5" height="500.3" viewBox="0 0 685.5 500.3"><path d="M541.9,29.4h0a16.3,16.3,0,0,0-9.4-11.8,16.6,16.6,0,0,0-15,.8c-9.2,5.3-91.6,51.5-174.8,51.5S177.1,23.7,168,18.4a16.3,16.3,0,0,0-15-.8,16.5,16.5,0,0,0-9.5,11.7c-3.3,15.7-18.9,98.7-3.8,193.6,8.8,55.2,26.3,104.4,52.3,146.3,32.1,51.9,77.2,92.6,133.9,121a37.7,37.7,0,0,0,16.8,3.9,37.2,37.2,0,0,0,16.9-4c56.3-28.3,101-69,133.1-120.9,25.8-41.8,43.4-91,52.3-146.1C560.3,128.2,545.1,45.1,541.9,29.4ZM515.4,218.3c-8.3,51.2-24.5,96.7-48.3,135.2-29,47-69.8,84-121,109.8a7.4,7.4,0,0,1-6.8,0c-51.7-25.8-92.7-62.8-121.8-109.9-23.8-38.5-40-84-48.2-135.2-11.2-70.3-4.5-133.7.4-164.8,32.4,16.5,101.2,46.5,173,46.5S483.2,70,515.7,53.4C520.4,84.7,526.7,148,515.4,218.3Z"/><path d="M334.2,362.8c-17.5,0-30,10.4-30,25.3s12,25,29.5,25,30-10.9,30-25S351.7,362.8,334.2,362.8Z"/><path d="M341.7,132.8c-26.5,0-55.1,6.5-71.6,16.2l12,25.3c12.5-7.6,32.6-12.5,50.6-12.5,31.5.4,47.6,14.1,47.6,34.7,0,18.1-12.6,33.8-35.1,55.1-25,24.2-34,47.9-31,69.7l1,10.5h39l-.5-10.5c-1.5-20.5,6.5-38.3,28.6-59.2,24-23,43-42.7,43-70.1C425.3,161.4,399.3,132.8,341.7,132.8Z"/></svg>