<svg id="Layer_1" data-name="Layer 1" xmlns="http://www.w3.org/2000/svg" width="685.5" height="500.3" viewBox="0 0 685.5 500.3"><defs><style>.cls-1{fill:#231f20;}</style></defs><path class="cls-1" d="M486,25.2H198.4A78.5,78.5,0,0,0,120,103.7V391.2a78.5,78.5,0,0,0,78.4,78.5H486a78.6,78.6,0,0,0,78.5-78.5V103.7A78.6,78.6,0,0,0,486,25.2Zm-287.6,30H486a48.5,48.5,0,0,1,48.5,48.5v69.8H150V103.7A48.5,48.5,0,0,1,198.4,55.2ZM150,391.2V203.5H277.4V439.7h-79A48.5,48.5,0,0,1,150,391.2Zm336,48.5H307.4V203.5H534.5V391.2A48.6,48.6,0,0,1,486,439.7Z"/></svg>