<svg id="Layer_1" data-name="Layer 1" xmlns="http://www.w3.org/2000/svg" width="685.5" height="500.3" viewBox="0 0 685.5 500.3"><g id="Mute"><path d="M521.8,53.1a15,15,0,0,0-21.2.8L435.1,125c-5.8-52.1-50-92.8-103.6-92.8A104.4,104.4,0,0,0,227.2,136.5V239.6a104.1,104.1,0,0,0,32.5,75.6l-1.4,1.5-3.4,3.7-2.7,2.9-1.6-1.5a113.9,113.9,0,0,1-33.7-80.9,15,15,0,0,0-30,0,143.6,143.6,0,0,0,44.9,104.5l-59.3,64.3a15.1,15.1,0,0,0,11,25.2,14.8,14.8,0,0,0,11-4.9l64.6-70,5.2-5.6,15.9-17.3,5.9-6.4,2.2-2.4,6.4-6.9,15.7-17,8.5-9.2,78.4-85,6.8-7.4,23.2-25.1,6.8-7.4,88.6-96A15,15,0,0,0,521.8,53.1ZM397.3,166,286.7,285.8l-3.9,4.3-2.8,3a73.8,73.8,0,0,1-22.8-53.5V136.5a74.3,74.3,0,1,1,148.5,0v20.3l-1.6,1.8Z"/><path d="M435.7,239.6V196.3l-23.1,25.1-6.9,7.4v10.8a74.3,74.3,0,0,1-74.2,74.3h-4.1l-8.5,9.2-15.7,17a105.7,105.7,0,0,0,28.3,3.9A104.3,104.3,0,0,0,435.7,239.6Z"/><path d="M461,225.9a15,15,0,0,0-15,15A114.5,114.5,0,0,1,294.6,349.3l-5.9,6.4L272.8,373a145.5,145.5,0,0,0,43.7,11.7v60.8a15,15,0,0,0,30,0V384.7C419.1,377.1,476,315.5,476,240.9A15,15,0,0,0,461,225.9Z"/></g></svg>