<svg id="Layer_1" data-name="Layer 1" xmlns="http://www.w3.org/2000/svg" width="685.5" height="500.3" viewBox="0 0 685.5 500.3"><g id="MIc"><path d="M331.5,343.9A104.3,104.3,0,0,0,435.7,239.6V136.5a104.3,104.3,0,1,0-208.5,0V239.6A104.4,104.4,0,0,0,331.5,343.9ZM257.2,136.5a74.3,74.3,0,1,1,148.5,0V239.6a74.3,74.3,0,1,1-148.5,0Z"/><path d="M476,240.9a15,15,0,1,0-30,0,114.6,114.6,0,0,1-229.1,0,15,15,0,0,0-30,0c0,74.6,56.9,136.2,129.6,143.7v60.9a15,15,0,0,0,30,0V384.6C419.1,377.1,476,315.5,476,240.9Z"/></g></svg>