<svg id="Layer_1" data-name="Layer 1" xmlns="http://www.w3.org/2000/svg" width="685.5" height="500.3" viewBox="0 0 685.5 500.3"><g id="Sp"><path d="M391.9,59.1a44.5,44.5,0,0,0-45.4.6L228,131.2a15.6,15.6,0,0,1-7.6,2.2l-53.1.8a45.2,45.2,0,0,0-44.5,45V312.8a44.8,44.8,0,0,0,43.7,45l53.9,1.7a16.3,16.3,0,0,1,7.4,2.2l118.7,71.6a45.1,45.1,0,0,0,68.4-38.6V98.3A44.4,44.4,0,0,0,391.9,59.1Zm-7,335.6A15.1,15.1,0,0,1,362,407.6L243.2,336h0a45.4,45.4,0,0,0-21.8-6.5l-53.9-1.6a15.1,15.1,0,0,1-14.7-15.1V179.2a15.2,15.2,0,0,1,14.9-15.1l53.2-.7a46.6,46.6,0,0,0,22.6-6.5L362,85.4a14.2,14.2,0,0,1,7.7-2.2,15.4,15.4,0,0,1,7.5,2,14.8,14.8,0,0,1,7.7,13.1Z"/><path d="M510.1,241a172.6,172.6,0,0,0-39.5-96.9,15,15,0,1,0-23.1,19.1,143.9,143.9,0,0,1-.5,184.4,14.9,14.9,0,0,0,1.9,21.1,14.6,14.6,0,0,0,9.6,3.5,15.1,15.1,0,0,0,11.5-5.3A173.1,173.1,0,0,0,510.1,241Z"/><path d="M576.3,236.3A229.6,229.6,0,0,0,516.4,98.6a14.9,14.9,0,0,0-21.2-1,15.1,15.1,0,0,0-1,21.2,202.2,202.2,0,0,1,5.3,266.6,14.9,14.9,0,0,0,1.9,21.1A14.6,14.6,0,0,0,511,410a15.1,15.1,0,0,0,11.5-5.3A230.9,230.9,0,0,0,576.3,236.3Z"/></g></svg>