<svg id="Layer_1" data-name="Layer 1" xmlns="http://www.w3.org/2000/svg" width="685.5" height="500.3" viewBox="0 0 685.5 500.3"><g id="Sp_Off" data-name="Sp Off"><path d="M385.2,214.7V395.2a15.1,15.1,0,0,1-22.9,12.9l-99-59.7-10.9,11.9L242.7,371l104.1,62.8a45.2,45.2,0,0,0,68.4-38.6V181.8l-24.4,26.7Z"/><path d="M482.2,55.9a15.1,15.1,0,0,0-21.2,1l-45.8,50.4V98.8a45.2,45.2,0,0,0-68.4-38.6L228.3,131.7a15.6,15.6,0,0,1-7.6,2.2l-53.1.7a45.4,45.4,0,0,0-44.5,45.1V313.3a44.8,44.8,0,0,0,43.7,45l19,.6-2.7,3-48.5,53.2a15,15,0,0,0,1,21.1,14.8,14.8,0,0,0,21.2-1l64.9-71.1,11-12.1,9.7-10.7,10.9-11.9L375.2,195.7l5.6-6.2,24.4-26.7,5.6-6.2,72.4-79.5A15,15,0,0,0,482.2,55.9Zm-107,95.2-148.6,163-14.2,15.6-44.6-1.3a15.1,15.1,0,0,1-14.7-15.1V179.7A15.2,15.2,0,0,1,168,164.6l53.1-.8a45.5,45.5,0,0,0,22.7-6.4L362.3,85.9a14.2,14.2,0,0,1,7.7-2.2,15.4,15.4,0,0,1,7.5,2,14.8,14.8,0,0,1,7.7,13.1v41.4l-4.4,4.7Z"/></g></svg>