<svg id="Layer_1" data-name="Layer 1" xmlns="http://www.w3.org/2000/svg" width="685.5" height="500.3" viewBox="0 0 685.5 500.3"><path d="M401.2,58a15,15,0,0,0-4.5,29.6c89.3,13.6,150.8,97.5,137.2,187C521.6,355.7,451.5,414.1,372,414.1a159.9,159.9,0,0,1-24.7-1.9C258,398.6,196.5,314.7,210.1,225.3a.4.4,0,0,1,.1-.3l53.2,53.4a15.1,15.1,0,0,0,21.3,0,15.1,15.1,0,0,0,0-21.2l-89.4-89.6-89.5,89.6a15,15,0,0,0,21.3,21.2l52.7-52.9c-13.2,104.1,59,200.5,163,216.4a193.3,193.3,0,0,0,29.2,2.2c94.1,0,177-69,191.6-165C579.7,173.2,506.9,74,401.2,58Z"/></svg>